<?xml version="1.0" encoding="UTF-8"?>
<svg width="752pt" height="752pt" version="1.1" viewBox="0 0 752 752" xmlns="http://www.w3.org/2000/svg">
 <g>
  <path d="m423.43 494.47-47.434-62.379-47.43 62.379 17.684 13.469 29.746-39.145 29.75 39.145z"/>
  <path d="m405.75 456.21 17.684-13.395-47.434-62.379-47.43 62.379 17.684 13.395 29.746-39.07z"/>
  <path d="m457.25 484.26v-216.52c0-44.77-36.406-81.25-81.25-81.25s-81.25 36.406-81.25 81.25v216.52c0 44.77 36.406 81.25 81.25 81.25s81.25-36.48 81.25-81.25zm-140.3 0v-216.52c0-32.559 26.492-59.051 59.051-59.051s59.051 26.492 59.051 59.051v216.52c0 32.559-26.492 59.051-59.051 59.051-32.562 0-59.051-26.492-59.051-59.051z"/>
 </g>
</svg>
